<svg width="1465" height="1123" viewBox="0 0 1465 1123" fill="none" xmlns="http://www.w3.org/2000/svg">
<path d="M110.415 1122.3C36.8048 1122.3 -6.52339e-05 1082.97 -6.52339e-05 1004.32V408.383C-6.52339e-05 271.247 30.2505 168.899 90.7517 101.339C151.253 33.7798 235.954 8.13915e-06 344.857 8.13915e-06C455.775 8.13915e-06 542.998 35.2923 606.524 105.877C671.059 176.462 703.326 279.818 703.326 415.945C703.326 506.697 690.217 579.299 664 633.75C637.783 687.192 601.482 726.014 555.098 750.214C508.714 774.415 455.271 786.515 394.77 786.515C342.336 786.515 298.976 778.952 264.692 763.827C231.417 748.702 205.2 725.51 186.041 694.251C193.099 714.418 198.141 734.081 201.166 753.239C205.2 772.398 207.721 794.582 208.729 819.791C210.746 844.999 211.754 877.267 211.754 916.593V1004.32C211.754 1082.97 177.974 1122.3 110.415 1122.3ZM355.444 609.549C397.795 609.549 430.566 594.928 453.759 565.686C477.959 535.435 490.059 478.967 490.059 396.283C490.059 313.598 477.959 257.634 453.759 228.392C430.566 198.141 397.795 183.016 355.444 183.016C313.093 183.016 279.818 198.141 255.617 228.392C232.425 257.634 220.829 313.598 220.829 396.283C220.829 478.967 232.425 535.435 255.617 565.686C279.818 594.928 313.093 609.549 355.444 609.549Z" fill="black"/>
<path d="M896.209 786.515C823.607 786.515 787.307 752.231 787.307 683.663V320.656C787.307 223.854 818.061 147.219 879.571 90.7517C942.089 34.284 1024.27 6.05014 1126.11 6.05014C1227.96 6.05014 1309.63 34.284 1371.14 90.7517C1433.66 147.219 1464.92 223.854 1464.92 320.656V683.663C1464.92 752.231 1428.62 786.515 1356.02 786.515C1283.42 786.515 1247.12 752.231 1247.12 683.663V332.756C1247.12 285.364 1236.53 249.567 1215.35 225.367C1194.18 200.158 1164.43 187.554 1126.11 187.554C1087.8 187.554 1058.05 200.158 1036.87 225.367C1015.7 249.567 1005.11 285.364 1005.11 332.756V683.663C1005.11 752.231 968.81 786.515 896.209 786.515Z" fill="#AA00FF"/>
</svg>
