<svg width="1932" height="1932" viewBox="0 0 1932 1932" fill="none" xmlns="http://www.w3.org/2000/svg">
<g clip-path="url(#clip0_2_5)">
<rect width="1932" height="1932" rx="950" fill="white"/>
<path d="M365.146 1555.88C294.076 1555.88 258.541 1517.91 258.541 1441.97V866.597C258.541 734.193 287.748 635.377 346.162 570.148C404.575 504.92 486.354 472.305 591.499 472.305C698.591 472.305 782.804 506.38 844.138 574.529C906.446 642.678 937.6 742.468 937.6 873.899C937.6 961.52 924.943 1031.62 899.631 1084.19C874.318 1135.79 839.27 1173.27 794.486 1196.63C749.703 1220 698.104 1231.68 639.69 1231.68C589.065 1231.68 547.202 1224.38 514.101 1209.78C481.973 1195.17 456.661 1172.78 438.163 1142.6C444.978 1162.07 449.846 1181.06 452.767 1199.56C456.661 1218.05 459.095 1239.47 460.068 1263.81C462.015 1288.15 462.989 1319.3 462.989 1357.27V1441.97C462.989 1517.91 430.375 1555.88 365.146 1555.88ZM601.721 1060.82C642.611 1060.82 674.252 1046.71 696.643 1018.47C720.009 989.266 731.692 934.747 731.692 854.915C731.692 775.083 720.009 721.05 696.643 692.817C674.252 663.61 642.611 649.007 601.721 649.007C560.832 649.007 528.704 663.61 505.339 692.817C482.947 721.05 471.751 775.083 471.751 854.915C471.751 934.747 482.947 989.266 505.339 1018.47C528.704 1046.71 560.832 1060.82 601.721 1060.82Z" fill="black"/>
<path d="M1123.83 1231.68C1053.73 1231.68 1018.68 1198.58 1018.68 1132.38V781.898C1018.68 688.436 1048.38 614.445 1107.76 559.926C1168.12 505.406 1247.47 478.147 1345.8 478.147C1444.13 478.147 1522.99 505.406 1582.37 559.926C1642.74 614.445 1672.92 688.436 1672.92 781.898V1132.38C1672.92 1198.58 1637.87 1231.68 1567.77 1231.68C1497.67 1231.68 1462.63 1198.58 1462.63 1132.38V793.58C1462.63 747.823 1452.4 713.262 1431.96 689.896C1411.51 665.557 1382.79 653.388 1345.8 653.388C1308.8 653.388 1280.08 665.557 1259.64 689.896C1239.19 713.262 1228.97 747.823 1228.97 793.58V1132.38C1228.97 1198.58 1193.92 1231.68 1123.83 1231.68Z" fill="#D42AFF"/>
</g>
<defs>
<clipPath id="clip0_2_5">
<rect width="1932" height="1932" rx="950" fill="white"/>
</clipPath>
</defs>
</svg>
